<?xml version="1.0" encoding="UTF-8" standalone="no"?>
<!-- Generator: Adobe Illustrator 19.0.0, SVG Export Plug-In . SVG Version: 6.00 Build 0)  -->

<svg
   xmlns:dc="http://purl.org/dc/elements/1.1/"
   xmlns:cc="http://creativecommons.org/ns#"
   xmlns:rdf="http://www.w3.org/1999/02/22-rdf-syntax-ns#"
   xmlns:svg="http://www.w3.org/2000/svg"
   xmlns="http://www.w3.org/2000/svg"
   xmlns:sodipodi="http://sodipodi.sourceforge.net/DTD/sodipodi-0.dtd"
   xmlns:inkscape="http://www.inkscape.org/namespaces/inkscape"
   version="1.1"
   id="Layer_1"
   x="0px"
   y="0px"
   viewBox="0 0 159.99999 31.999998"
   enable-background="new 0 0 566.9 566.9"
   xml:space="preserve"
   sodipodi:docname="coredocker2.svg"
   width="160"
   height="32"
   inkscape:version="0.92.3 (2405546, 2018-03-11)"><metadata
   id="metadata29"><rdf:RDF><cc:Work
       rdf:about=""><dc:format>image/svg+xml</dc:format><dc:type
         rdf:resource="http://purl.org/dc/dcmitype/StillImage" /><dc:title></dc:title></cc:Work></rdf:RDF></metadata><defs
   id="defs27" /><sodipodi:namedview
   pagecolor="#ffffff"
   bordercolor="#666666"
   borderopacity="1"
   objecttolerance="10"
   gridtolerance="10"
   guidetolerance="10"
   inkscape:pageopacity="0"
   inkscape:pageshadow="2"
   inkscape:window-width="1920"
   inkscape:window-height="1017"
   id="namedview25"
   showgrid="false"
   inkscape:zoom="4.7098873"
   inkscape:cx="89.770709"
   inkscape:cy="-8.6334599"
   inkscape:window-x="-8"
   inkscape:window-y="-8"
   inkscape:window-maximized="1"
   inkscape:current-layer="Layer_1" />
<g
   id="XMLID_176_"
   transform="matrix(0.10392712,0,0,0.10392712,-9.5646505,-7.6234773)">
	<path
   id="XMLID_90_"
   d="m 474.3,264.8 v -0.5 c -0.4,-33.3 -9.5,-66 -26.5,-94.7 -0.1,-0.1 -0.1,-0.2 -0.3,-0.5 -2.6,-4.3 -5.3,-8.5 -8.1,-12.5 -2.9,-4.1 -5.9,-8.1 -9,-11.8 -3.2,-3.8 -6.5,-7.5 -9.8,-11 -14.7,-15.2 -31.9,-27.9 -51,-37.5 -1.1,-0.6 -2.4,-1.2 -3.8,-1.9 l 0.1,-0.1 -10.4,-4.7 V 90 c -15.1,-6.2 -31,-10.4 -47.2,-12.5 -16.2,-2.1 -33.5,-2.1 -49.7,0 -17.7,2.3 -35.1,7.1 -51.5,14.3 l -0.5,0.2 c -0.4,0.1 -0.7,0.3 -1.1,0.5 -0.1,0.1 -0.3,0.1 -0.5,0.2 -5,2.3 -10,4.8 -15.4,7.8 -2.6,1.5 -5.4,3.1 -8.1,4.8 -1.4,0.8 -2.7,1.7 -4.1,2.6 -1,0.6 -2,1.3 -2.9,2 -0.4,0.2 -0.7,0.5 -1.1,0.7 l -0.2,0.1 c -0.7,0.4 -1.3,0.9 -2,1.4 -1,0.7 -2,1.4 -2.9,2.2 -2.6,1.9 -5.1,3.9 -7.6,6 -0.9,0.7 -1.7,1.5 -2.6,2.2 -3.1,2.7 -6.2,5.5 -9.2,8.6 -0.5,0.4 -0.9,0.9 -1.3,1.3 -0.9,0.9 -1.8,1.8 -2.6,2.6 -0.6,0.6 -1.1,1.1 -1.5,1.6 -2.8,3 -5.6,6.2 -8.2,9.4 -1,1.2 -1.9,2.4 -2.9,3.6 -0.7,0.9 -1.4,1.9 -2.1,2.8 -1.2,1.5 -2.3,3.1 -3.4,4.7 -0.9,1.2 -1.7,2.4 -2.5,3.6 l -0.1,0.2 c -0.6,0.9 -1.2,1.9 -1.8,2.8 -0.4,0.6 -0.8,1.3 -1.2,1.9 -0.7,1.1 -1.3,2.1 -2,3.3 l -0.3,0.5 c -0.5,0.8 -0.9,1.5 -1.4,2.3 l -1.6,2.9 c -5,9.1 -9.3,18.7 -12.7,28.5 l -0.2,0.5 v 0 c -0.6,1.8 -1.2,3.6 -1.8,5.4 l -0.1,0.4 c -0.6,1.8 -1.1,3.6 -1.6,5.5 l -0.2,0.9 c -0.5,1.7 -0.9,3.4 -1.4,5.2 -0.1,0.4 -0.2,0.9 -0.3,1.4 -0.4,1.5 -0.7,3 -1,4.5 -0.1,0.4 -0.2,0.8 -0.2,1.2 -0.1,0.4 -0.1,0.7 -0.2,1.1 l -0.2,0.8 c -0.2,1 -0.4,2 -0.6,3 -0.2,1 -0.3,2 -0.5,3 l -0.2,1.2 c -0.1,0.7 -0.2,1.3 -0.3,2 -0.2,1.5 -0.4,3.1 -0.6,4.6 l -0.2,1.6 c -0.6,5.2 -0.9,10.8 -1.1,16.5 v 0.8 c 0,0.5 -0.1,1 -0.1,1.5 v 0.3 c 0,0.7 0,1.3 0,2 0,21.3 3.5,42.2 10.3,62.1 1.8,5.3 3.7,10.1 5.9,15 l 2.5,5.5 32.3,-32.3 15.9,15.9 c 33.1,33.1 77.2,51.4 124,51.4 v 0 c 46.8,0 90.9,-18.2 124,-51.4 l 15.9,-15.9 32.2,32.3 2.5,-5.5 c 10.7,-24.3 16.2,-50.2 16.2,-77 0.1,-0.5 0.1,-1.2 0.1,-1.8 z"
   inkscape:connector-curvature="0"
   style="fill:#3a3a3a" />
	<path
   id="XMLID_89_"
   d="m 163.8,325.6 c 32,32 74.4,49.6 119.6,49.6 45.2,0 87.7,-17.6 119.6,-49.5 l 14.5,-14.5 -134,-134.1 -134.1,134 z"
   inkscape:connector-curvature="0"
   style="fill:#efefef" />
	<path
   id="XMLID_88_"
   d="m 111,326.8 c 0.9,2.7 1.9,5.4 3,8.1 L 137.7,311.2 101,274.5 c 0.8,18 4.1,35.5 10,52.3 z"
   inkscape:connector-curvature="0"
   style="fill:#ffec00" />
	<path
   id="XMLID_87_"
   d="m 123.1,179.4 c -0.5,0.9 -1,1.9 -1.5,2.9 -1.2,2.3 -2.3,4.5 -3.3,6.7 -0.9,1.8 -1.8,3.8 -2.9,6.4 v 0.7 l -0.5,0.5 c -0.7,1.6 -1.3,3.2 -1.9,4.8 l -0.2,0.4 c -0.6,1.7 -1.3,3.4 -1.9,5.1 l -0.1,0.3 c -0.6,1.7 -1.2,3.5 -1.7,5.2 l -0.1,0.5 c -0.6,1.7 -1,3.4 -1.5,5.1 l -0.4,1.3 c -0.4,1.4 -0.8,2.9 -1.1,4.3 -0.1,0.4 -0.2,0.7 -0.2,1.1 -0.4,1.6 -0.7,3.1 -1.1,4.7 l -0.3,1.5 c -0.3,1.4 -0.6,2.8 -0.8,4.2 -0.1,0.5 -0.1,0.8 -0.2,1.2 l -0.1,0.6 c -0.2,1.3 -0.4,2.6 -0.6,3.9 l -0.3,2.2 c -0.2,1.2 -0.3,2.4 -0.5,3.6 l -0.4,3.7 c -0.1,0.7 -0.1,1.4 -0.2,2.1 -0.1,0.6 -0.1,1.2 -0.1,1.8 l -0.1,2 c 0,0.7 -0.1,1.4 -0.1,2.1 l -0.1,3 c 0,0.4 0,0.6 0,0.9 v 0.4 c 0,0 0,0 0,0.1 l 42.6,42.6 57.4,-57.4 c -31.4,-15.1 -58.7,-39.2 -77.8,-68.5 z"
   inkscape:connector-curvature="0"
   style="fill:#ffbc00" />
	<path
   id="XMLID_81_"
   d="m 251.7,131.6 c 0.6,-0.5 1.2,-0.9 1.8,-1.4 l 0.3,-0.2 c 0.6,-0.4 1.2,-0.9 1.9,-1.3 0.7,-0.5 1.5,-0.9 2.3,-1.4 l 0.5,-0.3 c 0.5,-0.3 0.9,-0.6 1.4,-0.8 0.8,-0.4 1.6,-0.8 2.4,-1.2 0.3,-0.1 0.6,-0.3 0.8,-0.4 0.4,-0.2 0.8,-0.4 1.3,-0.6 0.8,-0.3 1.7,-0.6 2.6,-0.9 l 0.3,-0.1 c 0.6,-0.2 1.1,-0.4 1.7,-0.6 0.7,-0.2 1.5,-0.4 2.3,-0.6 l 1.1,-0.3 c 0.5,-0.1 1,-0.3 1.5,-0.3 1,-0.2 2.1,-0.3 3.1,-0.5 0.2,0 0.4,-0.1 0.5,-0.1 0.4,-0.1 0.8,-0.1 1.2,-0.2 1.7,-0.2 3.3,-0.2 4.9,-0.2 1.6,0 3.3,0.1 5,0.2 0.3,0 0.7,0.1 1.1,0.2 0.2,0 0.3,0.1 0.5,0.1 1.2,0.1 2.3,0.3 3.3,0.5 0.4,0.1 0.8,0.2 1.3,0.3 l 1.1,0.3 c 0.8,0.2 1.6,0.4 2.4,0.6 0.4,0.1 0.9,0.3 1.3,0.4 l 1.2,0.4 c 0.7,0.2 1.4,0.5 2.1,0.8 0.6,0.2 1.2,0.5 1.8,0.8 l 0.2,0.1 c 0.8,0.3 1.6,0.7 2.4,1.1 0.6,0.3 1.2,0.7 1.8,1 l 0.5,0.3 c 0.7,0.4 1.3,0.8 1.9,1.2 0.5,0.3 0.9,0.6 1.3,0.9 l 0.9,0.7 c 0.6,0.4 1.2,0.9 1.8,1.4 0.3,0.3 0.7,0.6 1,0.9 L 351.7,97.2 350,96.5 c -0.7,-0.3 -1.4,-0.5 -2.1,-0.8 -0.6,-0.2 -1.1,-0.4 -1.6,-0.6 l -7.2,-2.5 c -0.6,-0.2 -1.1,-0.3 -1.6,-0.5 l -2.9,-0.9 c -0.7,-0.2 -1.5,-0.4 -2.3,-0.6 l -0.4,-0.1 c -0.6,-0.2 -1.1,-0.3 -1.7,-0.5 l -2.5,-0.6 C 327,89.2 326.3,89 325.6,88.9 l -2.5,-0.6 c -0.7,-0.1 -1.4,-0.3 -2.2,-0.5 l -0.3,-0.1 c -0.7,-0.1 -1.3,-0.3 -2,-0.4 l -4.7,-0.9 c -0.6,-0.1 -1.2,-0.2 -1.9,-0.3 l -2.8,-0.4 c -0.7,-0.1 -1.4,-0.2 -2.1,-0.3 -0.6,-0.1 -1.2,-0.1 -1.7,-0.2 l -5.7,-0.6 c -0.6,-0.1 -1.3,-0.1 -1.9,-0.2 -1,-0.1 -1.9,-0.1 -2.8,-0.2 l -0.8,-0.1 c -0.4,0 -0.7,-0.1 -1.1,-0.1 -0.8,0 -1.5,-0.1 -2.1,-0.1 l -2.7,-0.1 c -3.1,-0.1 -6.3,-0.1 -9.5,0 l -2.6,0.1 c -0.7,0 -1.4,0 -2.1,0.1 -0.5,0 -0.8,0 -1.2,0.1 h -0.7 c -1,0 -1.9,0.1 -2.8,0.2 -0.6,0 -1.2,0.1 -1.8,0.1 l -5.9,0.6 c -0.6,0.1 -1.1,0.1 -1.7,0.2 -0.7,0.1 -1.3,0.2 -1.9,0.3 l -3,0.4 c -0.7,0.1 -1.3,0.2 -2,0.3 l -4.6,0.8 c -0.7,0.1 -1.4,0.3 -2,0.4 l -0.7,0.2 c -0.6,0.1 -1.3,0.3 -1.9,0.4 l -2.4,0.5 c -0.6,0.1 -1.2,0.3 -1.9,0.5 l -2.7,0.7 c -0.6,0.1 -1.1,0.3 -1.7,0.5 l -0.3,0.1 c -0.9,0.2 -1.7,0.4 -2.4,0.7 l -2.8,0.9 c -0.5,0.2 -1,0.3 -1.5,0.5 -0.8,0.2 -1.4,0.5 -2.1,0.7 l -2.4,0.8 c -0.7,0.2 -1.4,0.5 -2,0.7 l -1,0.3 c -0.5,0.2 -0.9,0.3 -1.4,0.5 l -3.8,1.5 35.2,35.2 c 0.3,0.1 0.6,-0.2 1,-0.5 z"
   inkscape:connector-curvature="0"
   style="fill:#fc6d26" />
	<path
   id="XMLID_78_"
   d="m 207.1,241.7 37.7,-37.6 c -7.8,-9.2 -12.1,-20.7 -12.1,-32.9 0,-6.6 1.2,-13 3.6,-19 1.9,-4.7 4.5,-9.1 7.8,-13.1 l 0.2,-0.3 c 0.1,-0.2 0.3,-0.3 0.4,-0.5 v 0 l -37.6,-37.5 c -1.7,0.8 -3.3,1.6 -5,2.4 l -0.5,0.3 c -0.2,0.1 -0.5,0.2 -0.7,0.4 l -2,1 c -1,0.6 -2.2,1.1 -3.3,1.8 -0.3,0.2 -0.7,0.4 -1.1,0.6 l -2.1,1.2 c -0.4,0.2 -0.7,0.4 -1.1,0.6 -1.3,0.7 -2.4,1.4 -3.6,2.2 l -1.5,0.9 c -1,0.6 -2,1.3 -3,1.9 l -1.6,1.1 c -0.6,0.4 -1.2,0.8 -1.8,1.2 -0.5,0.3 -0.9,0.6 -1.4,0.9 -0.4,0.3 -0.8,0.5 -1,0.8 -0.5,0.3 -0.9,0.7 -1.4,1 l -0.3,0.2 c -0.9,0.6 -1.7,1.3 -2.6,1.9 -0.5,0.4 -1,0.7 -1.4,1.1 l -3,2.3 c -0.5,0.4 -1,0.8 -1.5,1.3 -0.2,0.2 -0.3,0.2 -0.4,0.3 -1.4,1.1 -2.9,2.4 -4.3,3.7 l -0.4,0.3 c -0.4,0.4 -0.8,0.7 -1.2,1.1 -0.5,0.5 -1,0.9 -1.4,1.3 l -1.3,1.2 c -1.2,1.1 -2.5,2.4 -3.8,3.7 -0.8,0.8 -1.6,1.5 -2.3,2.3 -0.9,0.9 -1.7,1.8 -2.6,2.8 l -1.6,1.6 c -0.3,0.3 -0.6,0.7 -0.9,1.1 -0.4,0.4 -0.7,0.7 -0.9,1.1 -0.4,0.5 -0.8,1 -1.3,1.5 -0.4,0.4 -0.8,0.9 -1.2,1.3 -0.4,0.5 -0.9,1 -1.3,1.5 -0.7,0.8 -1.3,1.7 -2,2.5 -0.6,0.7 -1,1.3 -1.5,1.9 -0.4,0.6 -0.8,1.1 -1.2,1.6 -0.1,0.2 -0.3,0.5 -0.5,0.7 l -2,2.8 c -0.7,0.9 -1.3,1.8 -1.9,2.7 -0.3,0.5 -0.6,0.9 -0.9,1.3 l -0.1,0.2 c -0.4,0.5 -0.7,1 -1,1.5 -0.4,0.6 -0.8,1.2 -1.2,1.8 -0.8,1.3 -1.6,2.5 -2.4,3.9 19,30.3 47,55.2 79.5,70.1 z"
   inkscape:connector-curvature="0"
   style="fill:#ff9100" />
	<path
   id="XMLID_77_"
   d="m 465.9,260.9 c 0,-0.9 0,-1.8 -0.1,-2.7 -0.1,-1.2 -0.1,-2.5 -0.2,-3.7 0,-0.4 -0.1,-0.8 -0.1,-1.2 0,-0.4 0,-0.7 -0.1,-1.1 v -0.3 c -0.1,-1.2 -0.2,-2.5 -0.4,-3.7 l -0.2,-2 c -0.2,-1.4 -0.3,-2.8 -0.5,-4.2 l -0.2,-1.7 c -0.2,-1.5 -0.4,-2.9 -0.7,-4.4 l -0.1,-0.6 c 0,-0.3 -0.1,-0.5 -0.1,-0.8 -0.3,-1.5 -0.6,-3 -0.9,-4.4 l -0.1,-0.3 c -0.1,-0.5 -0.2,-0.9 -0.2,-1.3 -0.3,-1.6 -0.7,-3.1 -1,-4.6 l -0.1,-0.5 c 0,-0.2 -0.1,-0.4 -0.2,-0.6 -0.4,-1.5 -0.7,-2.8 -1.1,-4.1 l -0.5,-1.7 c -0.3,-1.1 -0.6,-2.1 -0.9,-3.1 l -0.4,-1.4 c 0,-0.1 -0.1,-0.4 -0.2,-0.6 0,-0.2 -0.1,-0.3 -0.1,-0.5 -0.5,-1.5 -1,-3 -1.5,-4.4 l -0.4,-1.4 c -0.5,-1.3 -1,-2.7 -1.5,-4.1 l -0.2,-0.6 c -0.1,-0.2 -0.2,-0.5 -0.3,-0.7 -0.5,-1.4 -1.1,-2.6 -1.6,-3.9 l -0.3,-0.7 c -0.1,-0.3 -0.2,-0.6 -0.4,-0.9 -0.4,-1 -0.8,-1.9 -1.2,-2.8 l -1.2,-2.8 c -0.3,-0.6 -0.6,-1.3 -1,-2 l -1.1,-2.3 c -0.2,-0.3 -0.3,-0.7 -0.5,-1 -0.6,-1.2 -1.2,-2.2 -1.7,-3.3 -0.2,-0.3 -0.3,-0.6 -0.4,-0.8 -0.1,-0.2 -0.2,-0.3 -0.2,-0.4 -19,29.3 -46.3,53.5 -77.8,68.6 l 57.4,57.4 42.6,-42.6 c 0,-0.4 0,-0.7 0,-1 z"
   inkscape:connector-curvature="0"
   style="fill:#ffbc00" />
	<path
   id="XMLID_76_"
   d="m 314.9,142.6 c -0.1,-0.2 -0.3,-0.4 -0.5,-0.5 l -0.9,-0.9 -0.9,-0.9 c -0.5,-0.5 -0.9,-0.9 -1.4,-1.3 -0.4,-0.3 -0.8,-0.7 -1.2,-1 -0.5,-0.4 -0.9,-0.7 -1.3,-1 l -1.3,-0.9 c -2.6,-1.7 -5.3,-3.2 -8.2,-4.4 -0.5,-0.2 -0.9,-0.4 -1.4,-0.5 -0.7,-0.3 -1.4,-0.5 -2.1,-0.7 -1.2,-0.3 -2.4,-0.7 -3.9,-1 -2.7,-0.5 -5.5,-0.8 -8.4,-0.8 -11,0 -21.5,4.2 -29.4,11.8 l -0.7,0.7 c -0.2,0.2 -0.4,0.4 -0.6,0.6 -0.3,0.3 -0.5,0.6 -0.7,0.8 -0.2,0.2 -0.4,0.4 -0.5,0.6 -3.4,3.9 -6.1,8.3 -7.9,13 -0.2,0.6 -0.4,1.2 -0.6,1.8 -0.4,1.3 -0.8,2.5 -1,3.7 -0.1,0.6 -0.3,1.2 -0.4,1.8 -0.1,0.6 -0.2,1.1 -0.3,1.6 -0.1,0.6 -0.1,1 -0.2,1.6 l -0.1,0.7 c -0.1,1.3 -0.2,2.6 -0.2,3.9 0,2.4 0.2,4.7 0.6,6.9 0.1,0.5 0.1,0.9 0.2,1.3 l 0.1,0.3 c 0.1,0.5 0.2,1 0.3,1.5 0.2,0.8 0.3,1.4 0.5,2 0.1,0.4 0.3,0.9 0.4,1.3 v 0 l 0.2,0.7 c 0,0.1 0.1,0.2 0.1,0.3 v 0 c 0.4,1.1 0.8,2.2 1.4,3.4 l 0.2,0.4 c 0.2,0.5 0.5,1 0.7,1.4 1.4,2.7 3.1,5.2 5,7.5 l 32.8,-32.8 32.8,32.8 c 6.3,-7.6 9.7,-17.1 9.7,-27 0,-1.3 -0.1,-2.6 -0.2,-3.9 l -0.1,-1 c 0,-0.5 -0.1,-0.9 -0.2,-1.3 -0.1,-0.5 -0.2,-1 -0.2,-1.5 -0.1,-0.5 -0.2,-0.9 -0.3,-1.3 l -0.1,-0.5 c -0.3,-1.3 -0.6,-2.5 -1.1,-3.9 -0.2,-0.6 -0.3,-1.1 -0.6,-1.6 -1.9,-4.9 -4.5,-9.3 -7.9,-13.1 0.1,-0.2 0,-0.4 -0.2,-0.6 z"
   inkscape:connector-curvature="0"
   style="fill:#ff5500" />
	<path
   id="XMLID_74_"
   d="m 322.9,139.2 0.1,0.2 c 0.4,0.5 0.8,1 1.2,1.5 l 0.9,1.2 c 0.3,0.4 0.6,0.9 0.9,1.3 0.4,0.6 0.7,1.2 1.1,1.8 l 0.3,0.5 c 0.1,0.3 0.3,0.5 0.4,0.7 0.3,0.4 0.5,0.9 0.8,1.3 0.3,0.6 0.6,1.2 0.9,1.9 l 0.5,1.1 c 0.2,0.5 0.5,0.9 0.6,1.4 0.3,0.8 0.6,1.7 0.9,2.6 l 0.1,0.2 c 0.2,0.6 0.4,1.2 0.6,1.8 0.2,0.7 0.4,1.5 0.6,2.2 l 0.3,1.1 c 0.1,0.5 0.2,1 0.3,1.5 0.2,1 0.4,2.1 0.5,3.1 0,0.3 0.1,0.5 0.1,0.7 0,0.3 0.1,0.6 0.1,0.9 0.2,1.8 0.2,3.5 0.2,5.1 0,12.2 -4.3,23.7 -12.1,32.9 l 37.7,37.6 c 32.5,-15 60.5,-39.9 79.3,-70.4 l -2.4,-3.9 c -0.1,-0.1 -0.2,-0.3 -0.3,-0.5 -0.1,-0.1 -0.1,-0.2 -0.2,-0.3 l -0.6,-0.9 c -0.3,-0.4 -0.5,-0.8 -0.7,-1.1 l -0.6,-0.9 v 0 c 0,0 0,0 0,0 v -0.1 c -0.2,-0.3 -0.4,-0.6 -0.6,-0.9 -0.3,-0.5 -0.6,-0.9 -0.9,-1.3 0,0 -0.1,-0.1 -0.1,-0.2 l -0.5,-0.7 c -0.1,-0.1 -0.1,-0.2 -0.2,-0.2 l -1.7,-2.2 -0.7,-0.9 c -0.3,-0.5 -0.7,-1 -1.1,-1.4 l -0.2,-0.3 c -0.6,-0.8 -1.2,-1.5 -1.8,-2.3 l -0.5,-0.6 c -0.3,-0.4 -0.6,-0.8 -0.9,-1.1 -0.3,-0.4 -0.7,-0.8 -1,-1.2 l -0.3,-0.4 c -0.1,-0.2 -0.3,-0.4 -0.5,-0.6 l -0.4,-0.5 c -0.5,-0.6 -0.9,-1.1 -1.4,-1.6 l -0.6,-0.7 c -0.5,-0.5 -0.9,-1.1 -1.4,-1.6 l -0.2,-0.2 c -0.6,-0.7 -1.2,-1.3 -1.8,-2 l -0.6,-0.7 c -0.3,-0.3 -0.7,-0.7 -1,-1.1 -0.4,-0.4 -0.8,-0.8 -1.2,-1.2 l -0.2,-0.2 c -0.5,-0.5 -1,-1 -1.5,-1.5 l -1.8,-1.8 c -0.4,-0.4 -0.8,-0.8 -1.3,-1.3 h -0.1 l -0.3,-0.3 c -0.2,-0.2 -0.4,-0.4 -0.6,-0.6 l -2.6,-2.4 c -0.7,-0.6 -1.3,-1.2 -1.9,-1.7 -0.3,-0.3 -0.5,-0.5 -0.7,-0.6 l -3.7,-3.1 c -0.3,-0.3 -0.6,-0.5 -0.8,-0.7 -0.1,-0.1 -0.2,-0.2 -0.3,-0.3 -0.6,-0.5 -1.2,-1 -1.8,-1.5 l -1.5,-1.2 c -0.6,-0.5 -1.3,-1 -1.9,-1.5 0,0 -0.2,-0.2 -0.2,-0.2 -0.9,-0.6 -1.8,-1.3 -2.6,-1.9 l -1.3,-0.9 c -0.3,-0.2 -0.5,-0.4 -0.8,-0.6 l -0.3,-0.2 c 0,0 -0.1,0 -0.1,-0.1 l -0.7,-0.5 c -0.3,-0.2 -0.6,-0.4 -0.9,-0.6 l -1.7,-1.1 c -1,-0.7 -1.9,-1.3 -2.9,-1.9 -0.2,-0.1 -0.3,-0.2 -0.4,-0.3 l -3.7,-2.3 c -0.6,-0.4 -1.2,-0.7 -1.8,-1.1 -0.2,-0.1 -0.4,-0.2 -0.5,-0.3 -0.4,-0.2 -0.8,-0.4 -1.2,-0.7 -0.5,-0.3 -1,-0.5 -1.5,-0.8 -0.8,-0.4 -1.5,-0.9 -2.3,-1.3 -0.3,-0.2 -0.5,-0.3 -0.7,-0.4 l -0.4,-0.2 c -0.4,-0.2 -0.7,-0.4 -1,-0.5 -0.5,-0.3 -0.8,-0.4 -1,-0.5 l -0.2,-0.1 c -0.1,0 -0.2,-0.1 -0.3,-0.1 -0.3,-0.1 -0.5,-0.2 -0.6,-0.3 -0.6,-0.3 -1.1,-0.6 -1.7,-0.8 -0.5,-0.2 -0.8,-0.4 -1.2,-0.6 l -0.3,-0.2 c -0.7,-0.4 -1.5,-0.7 -2.2,-1 l -1.6,-0.8 -37.6,37.5 c 0.3,0.3 0.5,0.6 0.8,0.9 z"
   inkscape:connector-curvature="0"
   style="fill:#ff9100" />
	<path
   id="XMLID_73_"
   d="m 452.9,334.8 c 7.8,-19.2 12.1,-39.5 13,-60.3 l -36.7,36.6 z"
   inkscape:connector-curvature="0"
   style="fill:#ffec00" />
</g>
<g
   id="XMLID_93_"
   transform="matrix(0.18999215,0,0,0.18999215,46.389904,-68.52046)">
	<path
   id="XMLID_154_"
   d="M 33,489 C 27.1,489 21.8,487.6 17.4,484.9 12.9,482.1 9.4,478.3 7,473.4 4.5,468.5 3.3,463 3.3,457 c 0,-6.2 1.3,-11.8 3.9,-16.7 2.6,-4.8 6.2,-8.6 10.8,-11.4 4.6,-2.7 9.9,-4.1 15.7,-4.1 6.5,0 11.9,1 15.8,3.1 3.9,2 5.8,4.5 5.8,7.8 0,1.6 -0.5,3 -1.4,4.2 -0.9,1.2 -2.1,1.7 -3.5,1.7 -1.2,0 -2.1,-0.2 -2.8,-0.5 -0.7,-0.3 -1.5,-0.8 -2.2,-1.3 -0.8,-0.6 -1.5,-1.1 -2.3,-1.5 -0.9,-0.4 -2,-0.8 -3.6,-1.1 -1.6,-0.3 -2.9,-0.5 -3.8,-0.5 -6,0 -10.8,1.9 -14.2,5.7 -3.4,3.7 -5.1,8.7 -5.1,14.7 0,5.8 1.7,10.6 5.2,14.4 3.5,3.8 8,5.8 13.4,5.8 3.9,0 6.9,-0.5 8.8,-1.5 0.5,-0.2 1.1,-0.7 2,-1.3 0.8,-0.6 1.5,-1 2.2,-1.3 0.6,-0.3 1.4,-0.4 2.4,-0.4 1.8,0 3.2,0.6 4.2,1.7 1,1.1 1.6,2.6 1.6,4.4 0,1.7 -1,3.3 -3.1,4.8 -2.1,1.6 -5,2.9 -8.5,3.8 C 40.9,488.6 37,489 33,489 Z"
   inkscape:connector-curvature="0"
   style="fill:#3a3a3a" />
	<path
   id="XMLID_156_"
   d="m 86.8,489 c -5.8,0 -11.2,-1.4 -15.9,-4 -4.7,-2.7 -8.5,-6.5 -11.3,-11.4 -2.8,-4.9 -4.2,-10.4 -4.2,-16.6 0,-6.1 1.4,-11.7 4.2,-16.6 2.8,-4.9 6.6,-8.7 11.3,-11.4 4.7,-2.7 10.1,-4.1 15.9,-4.1 5.7,0 11.1,1.4 15.9,4.1 4.8,2.7 8.6,6.6 11.4,11.4 2.8,4.9 4.2,10.4 4.2,16.6 0,6.1 -1.4,11.7 -4.2,16.6 -2.8,4.9 -6.6,8.7 -11.4,11.4 -4.9,2.7 -10.2,4 -15.9,4 z m 0,-52.3 c -3.4,0 -6.5,0.9 -9.3,2.6 -2.8,1.7 -5,4.1 -6.7,7.2 -1.6,3.1 -2.5,6.6 -2.5,10.6 0,3.9 0.8,7.4 2.5,10.5 1.6,3.1 3.9,5.5 6.7,7.2 2.8,1.7 5.9,2.6 9.3,2.6 3.4,0 6.5,-0.9 9.3,-2.6 2.8,-1.7 5,-4.1 6.7,-7.2 1.6,-3.1 2.5,-6.6 2.5,-10.5 0,-3.9 -0.8,-7.5 -2.5,-10.6 -1.6,-3.1 -3.9,-5.5 -6.7,-7.2 -2.8,-1.7 -6,-2.6 -9.3,-2.6 z"
   inkscape:connector-curvature="0"
   style="fill:#3a3a3a" />
	<path
   id="XMLID_159_"
   d="m 129.1,487.9 c -1.9,0 -3.4,-0.6 -4.6,-1.9 -1.2,-1.3 -1.8,-2.8 -1.8,-4.7 v -48.5 c 0,-1.9 0.6,-3.4 1.8,-4.7 1.2,-1.3 2.7,-1.9 4.6,-1.9 1.9,0 3.4,0.6 4.6,1.9 1.2,1.3 1.8,2.8 1.8,4.7 v 3.7 l 1.1,-1.9 c 1.7,-3.1 4.3,-5.5 7.5,-7.1 3.3,-1.6 6.8,-2.5 10.6,-2.5 2.2,0 4.1,0.6 5.6,1.9 1.5,1.2 2.2,2.6 2.2,4.3 0,2.3 -0.6,4 -1.7,5.1 -1.2,1.1 -2.5,1.7 -4.1,1.7 -1.1,0 -2.4,-0.3 -3.8,-0.8 -0.3,-0.1 -0.8,-0.2 -1.6,-0.5 -0.9,-0.2 -1.8,-0.4 -2.8,-0.4 -2.1,0 -4.2,0.7 -6.2,2 -2,1.3 -3.6,3.3 -4.8,5.9 -1.2,2.6 -1.9,5.8 -1.9,9.4 v 27.9 c 0,1.9 -0.6,3.4 -1.8,4.7 -1.3,1.1 -2.8,1.7 -4.7,1.7 z"
   inkscape:connector-curvature="0"
   style="fill:#3a3a3a" />
	<path
   id="XMLID_161_"
   d="m 191,489 c -6.5,0 -12.2,-1.4 -16.9,-4 -4.8,-2.7 -8.5,-6.4 -11.1,-11.1 -2.6,-4.7 -3.9,-10.1 -3.9,-16 0,-6.6 1.4,-12.5 4.2,-17.5 2.8,-5 6.4,-8.8 11,-11.5 4.5,-2.6 9.4,-4 14.5,-4 5,0 9.9,1.4 14.3,4.1 4.5,2.8 8.1,6.5 10.8,11.2 2.7,4.7 4,9.8 4,15.2 -0.1,1.7 -0.7,3.1 -2,4.1 -1.3,1.1 -2.8,1.6 -4.6,1.6 h -39.5 l 0.1,0.7 c 1,4.7 3.2,8.5 6.7,11.2 3.5,2.7 7.4,4.1 11.8,4.1 3.3,0 5.8,-0.3 7.7,-0.9 1.9,-0.6 3.3,-1.2 4.4,-1.9 1,-0.7 1.8,-1.1 2.2,-1.3 1.3,-0.6 2.5,-1 3.7,-1 1.5,0 2.8,0.5 3.8,1.6 1.1,1.1 1.6,2.3 1.6,3.7 0,1.9 -1,3.7 -3.1,5.3 -2.1,1.8 -5,3.3 -8.6,4.5 -3.7,1.3 -7.4,1.9 -11.1,1.9 z m -2.4,-52.3 c -9.4,0 -15,4.5 -16.7,13.3 l -0.1,0.7 h 32.1 v -1.4 c -0.3,-3.5 -2,-6.5 -5,-8.9 -3,-2.4 -6.5,-3.7 -10.3,-3.7 z"
   inkscape:connector-curvature="0"
   style="fill:#3a3a3a" />
	<path
   id="XMLID_164_"
   d="m 249.8,489 c -5.3,0 -10.1,-1.4 -14.4,-4.1 -4.3,-2.7 -7.7,-6.5 -10.2,-11.4 -2.5,-4.8 -3.8,-10.4 -3.8,-16.5 0,-6.2 1.2,-11.7 3.7,-16.6 2.4,-4.9 5.8,-8.7 10.1,-11.4 4.2,-2.7 9,-4.1 14.1,-4.1 3.7,0 7.1,0.7 10.4,2 3.2,1.3 6,3.1 8.2,5.1 l 1,0.9 v -24.4 c 0,-1.9 0.6,-3.4 1.8,-4.7 1.2,-1.3 2.8,-1.9 4.6,-1.9 1.9,0 3.4,0.6 4.6,1.8 1.2,1.2 1.8,2.8 1.8,4.8 v 72.6 c 0,1.9 -0.6,3.4 -1.8,4.7 -1.2,1.3 -2.8,1.9 -4.6,1.9 -1.9,0 -3.4,-0.6 -4.6,-1.8 -1.2,-1.2 -1.8,-2.8 -1.9,-4.7 l -0.1,-1.5 -1,1.1 c -1.9,2.2 -4.5,4.1 -7.7,5.7 -3.2,1.8 -6.6,2.5 -10.2,2.5 z m 1.8,-52.3 c -5.2,0 -9.5,2 -12.8,5.8 -3.3,3.8 -5,8.7 -5,14.5 0,5.8 1.6,10.6 4.9,14.4 3.3,3.8 7.6,5.8 12.8,5.8 5.2,0 9.6,-1.9 12.9,-5.8 3.3,-3.8 5,-8.7 5,-14.4 0,-5.8 -1.7,-10.6 -5,-14.5 -3.3,-3.8 -7.6,-5.8 -12.8,-5.8 z"
   inkscape:connector-curvature="0"
   style="fill:#3a3a3a" />
	<path
   id="XMLID_167_"
   d="m 317.6,489 c -5.8,0 -11.2,-1.4 -15.9,-4 -4.7,-2.7 -8.5,-6.5 -11.3,-11.4 -2.8,-4.9 -4.2,-10.4 -4.2,-16.6 0,-6.1 1.4,-11.7 4.2,-16.6 2.8,-4.9 6.6,-8.7 11.3,-11.4 4.7,-2.7 10.1,-4.1 15.9,-4.1 5.7,0 11.1,1.4 15.9,4.1 4.8,2.7 8.6,6.6 11.4,11.4 2.8,4.9 4.2,10.4 4.2,16.6 0,6.1 -1.4,11.7 -4.2,16.6 -2.8,4.9 -6.6,8.7 -11.4,11.4 -4.8,2.7 -10.1,4 -15.9,4 z m 0,-52.3 c -3.4,0 -6.5,0.9 -9.3,2.6 -2.8,1.7 -5,4.1 -6.7,7.2 -1.6,3.1 -2.5,6.6 -2.5,10.6 0,3.9 0.8,7.5 2.5,10.5 1.6,3.1 3.9,5.5 6.7,7.2 2.8,1.7 5.9,2.6 9.3,2.6 3.4,0 6.5,-0.9 9.3,-2.6 2.8,-1.7 5,-4.1 6.7,-7.2 1.6,-3.1 2.5,-6.6 2.5,-10.5 0,-3.9 -0.8,-7.5 -2.5,-10.6 -1.7,-3.1 -3.9,-5.5 -6.7,-7.2 -2.8,-1.7 -5.9,-2.6 -9.3,-2.6 z"
   inkscape:connector-curvature="0"
   style="fill:#3a3a3a" />
	<path
   id="XMLID_170_"
   d="m 382.4,489 c -5.9,0 -11.2,-1.4 -15.6,-4.1 -4.5,-2.8 -8,-6.6 -10.4,-11.5 -2.5,-4.9 -3.7,-10.4 -3.7,-16.4 0,-6.2 1.3,-11.8 3.9,-16.7 2.6,-4.8 6.2,-8.6 10.8,-11.4 4.6,-2.7 9.9,-4.1 15.7,-4.1 6.5,0 11.9,1 15.8,3.1 3.9,2 5.8,4.5 5.8,7.8 0,1.6 -0.5,3 -1.4,4.2 -0.9,1.2 -2.1,1.7 -3.5,1.7 -1.2,0 -2.1,-0.2 -2.8,-0.5 -0.7,-0.3 -1.5,-0.8 -2.2,-1.3 -0.8,-0.6 -1.5,-1.1 -2.2,-1.5 -0.9,-0.4 -2,-0.8 -3.6,-1.1 -1.6,-0.3 -2.8,-0.5 -3.8,-0.5 -6,0 -10.8,1.9 -14.2,5.7 -3.4,3.7 -5.1,8.7 -5.1,14.7 0,5.8 1.7,10.6 5.2,14.4 3.5,3.8 8,5.8 13.4,5.8 3.9,0 6.9,-0.5 8.8,-1.5 0.5,-0.2 1.2,-0.7 2,-1.3 0.8,-0.6 1.5,-1 2.2,-1.3 0.6,-0.3 1.4,-0.4 2.4,-0.4 1.8,0 3.2,0.6 4.2,1.7 1,1.1 1.6,2.6 1.6,4.4 0,1.7 -1,3.3 -3.1,4.8 -2.1,1.6 -5,2.9 -8.5,3.8 -3.9,1.1 -7.7,1.5 -11.7,1.5 z"
   inkscape:connector-curvature="0"
   style="fill:#3a3a3a" />
	<path
   id="XMLID_172_"
   d="m 415.9,487.9 c -1.9,0 -3.4,-0.6 -4.6,-1.9 -1.2,-1.3 -1.8,-2.8 -1.8,-4.7 v -72.6 c 0,-1.9 0.6,-3.4 1.8,-4.7 1.2,-1.3 2.8,-1.9 4.6,-1.9 1.9,0 3.4,0.6 4.6,1.9 1.2,1.3 1.8,2.8 1.8,4.7 v 44.8 l 26.1,-25.3 c 1.4,-1.4 3,-2.1 4.8,-2.1 1.6,0 3,0.7 4.2,2 1.3,1.3 1.9,2.7 1.9,4 0,1.7 -0.9,3.3 -2.6,4.9 l -18.2,16.7 21,22.8 c 1.4,1.5 2.1,3.1 2.1,4.9 0,1.8 -0.7,3.3 -2.1,4.5 -1.4,1.2 -2.9,1.9 -4.5,1.9 -1.9,0 -3.4,-0.7 -4.7,-2.2 l -21.6,-22.8 -6.4,5.8 v 12.6 c 0,1.9 -0.6,3.4 -1.8,4.7 -1.2,1.4 -2.7,2 -4.6,2 z"
   inkscape:connector-curvature="0"
   style="fill:#3a3a3a" />
	<path
   id="XMLID_174_"
   d="m 492.5,489 c -6.5,0 -12.2,-1.4 -16.9,-4 -4.8,-2.7 -8.5,-6.4 -11.1,-11.1 -2.6,-4.7 -3.9,-10.1 -3.9,-16 0,-6.6 1.4,-12.5 4.2,-17.5 2.8,-5 6.4,-8.8 11,-11.5 4.5,-2.6 9.4,-4 14.5,-4 5,0 9.9,1.4 14.3,4.1 4.5,2.8 8.1,6.5 10.8,11.2 2.7,4.7 4,9.8 4,15.2 -0.1,1.7 -0.7,3.1 -2,4.1 -1.3,1.1 -2.8,1.6 -4.6,1.6 h -39.5 l 0.1,0.7 c 1,4.7 3.2,8.5 6.7,11.2 3.5,2.7 7.4,4.1 11.8,4.1 3.3,0 5.8,-0.3 7.7,-0.9 1.9,-0.6 3.3,-1.2 4.4,-1.9 1.1,-0.7 1.8,-1.1 2.2,-1.3 1.3,-0.6 2.5,-1 3.7,-1 1.5,0 2.8,0.5 3.8,1.6 1.1,1.1 1.6,2.3 1.6,3.7 0,1.9 -1,3.7 -3.1,5.3 -2.1,1.8 -5,3.3 -8.6,4.5 -3.7,1.3 -7.4,1.9 -11.1,1.9 z m -2.3,-52.3 c -9.4,0 -15,4.5 -16.7,13.3 l -0.1,0.7 h 32.1 v -1.4 c -0.3,-3.5 -2,-6.5 -5,-8.9 -3.1,-2.4 -6.5,-3.7 -10.3,-3.7 z"
   inkscape:connector-curvature="0"
   style="fill:#3a3a3a" />
	<path
   id="XMLID_178_"
   d="m 530.3,487.9 c -1.9,0 -3.4,-0.6 -4.6,-1.9 -1.2,-1.3 -1.8,-2.8 -1.8,-4.7 v -48.5 c 0,-1.9 0.6,-3.4 1.8,-4.7 1.2,-1.3 2.7,-1.9 4.6,-1.9 1.9,0 3.4,0.6 4.6,1.9 1.2,1.3 1.8,2.8 1.8,4.7 v 3.7 l 1.1,-1.9 c 1.7,-3.1 4.3,-5.5 7.5,-7.1 3.3,-1.6 6.8,-2.5 10.6,-2.5 2.2,0 4.1,0.6 5.6,1.9 1.5,1.2 2.2,2.6 2.2,4.3 0,2.3 -0.6,4 -1.7,5.1 -1.2,1.1 -2.5,1.7 -4.1,1.7 -1.1,0 -2.4,-0.3 -3.8,-0.8 -0.3,-0.1 -0.8,-0.2 -1.6,-0.5 -0.9,-0.2 -1.8,-0.4 -2.8,-0.4 -2.1,0 -4.2,0.7 -6.2,2 -2,1.3 -3.6,3.3 -4.8,5.9 -1.2,2.6 -1.9,5.8 -1.9,9.4 v 27.9 c 0,1.9 -0.6,3.4 -1.8,4.7 -1.3,1.1 -2.9,1.7 -4.7,1.7 z"
   inkscape:connector-curvature="0"
   style="fill:#3a3a3a" />
</g>
</svg>